<svg width="178" height="166" viewBox="0 0 178 166" fill="none" xmlns="http://www.w3.org/2000/svg">
<path d="M89.0137 165.208C87.7984 165.208 86.3227 164.774 84.5867 163.906C82.8506 163.096 81.2013 162.17 79.6388 161.128C63.5511 150.712 49.5467 139.774 37.6256 128.316C25.7624 116.8 16.5612 104.966 10.0219 92.8134C3.48266 80.603 0.213043 68.3057 0.213043 55.9217C0.213043 47.7042 1.5151 40.2101 4.11923 33.4394C6.78122 26.6687 10.427 20.8239 15.0565 15.905C19.744 10.9861 25.1258 7.22455 31.2021 4.62042C37.3363 1.95843 43.9334 0.627434 50.9935 0.627434C59.7317 0.627434 67.2837 2.82647 73.6493 7.22455C80.0728 11.6226 85.1943 17.3517 89.0137 24.4118C92.8909 17.2938 98.0124 11.5648 104.378 7.22455C110.802 2.82647 118.382 0.627434 127.121 0.627434C134.065 0.627434 140.604 1.95843 146.738 4.62042C152.93 7.22455 158.341 10.9861 162.971 15.905C167.6 20.8239 171.217 26.6687 173.821 33.4394C176.483 40.2101 177.814 47.7042 177.814 55.9217C177.814 68.3057 174.545 80.603 168.005 92.8134C161.466 104.966 152.236 116.8 140.315 128.316C128.452 139.774 114.505 150.712 98.4753 161.128C96.855 162.17 95.1768 163.096 93.4407 163.906C91.7625 164.774 90.2868 165.208 89.0137 165.208Z" fill="#7F7F7F" fill-opacity="0.5" style="mix-blend-mode:luminosity"/>
<path d="M89.0137 165.208C87.7984 165.208 86.3227 164.774 84.5867 163.906C82.8506 163.096 81.2013 162.17 79.6388 161.128C63.5511 150.712 49.5467 139.774 37.6256 128.316C25.7624 116.8 16.5612 104.966 10.0219 92.8134C3.48266 80.603 0.213043 68.3057 0.213043 55.9217C0.213043 47.7042 1.5151 40.2101 4.11923 33.4394C6.78122 26.6687 10.427 20.8239 15.0565 15.905C19.744 10.9861 25.1258 7.22455 31.2021 4.62042C37.3363 1.95843 43.9334 0.627434 50.9935 0.627434C59.7317 0.627434 67.2837 2.82647 73.6493 7.22455C80.0728 11.6226 85.1943 17.3517 89.0137 24.4118C92.8909 17.2938 98.0124 11.5648 104.378 7.22455C110.802 2.82647 118.382 0.627434 127.121 0.627434C134.065 0.627434 140.604 1.95843 146.738 4.62042C152.93 7.22455 158.341 10.9861 162.971 15.905C167.6 20.8239 171.217 26.6687 173.821 33.4394C176.483 40.2101 177.814 47.7042 177.814 55.9217C177.814 68.3057 174.545 80.603 168.005 92.8134C161.466 104.966 152.236 116.8 140.315 128.316C128.452 139.774 114.505 150.712 98.4753 161.128C96.855 162.17 95.1768 163.096 93.4407 163.906C91.7625 164.774 90.2868 165.208 89.0137 165.208Z" fill="white" style="mix-blend-mode:overlay"/>
</svg>
