<svg width="178" height="165" viewBox="0 0 178 165" fill="none" xmlns="http://www.w3.org/2000/svg">
<path d="M0.01773 55.6853C0.01773 47.4679 1.31979 39.9738 3.92392 33.2031C6.58591 26.4323 10.2606 20.5875 14.948 15.6686C19.6933 10.7497 25.162 6.98822 31.354 4.3841C37.5461 1.7221 44.23 0.391106 51.4058 0.391106C59.7968 0.391106 67.1752 2.12719 73.5408 5.59935C79.9065 9.01365 84.999 13.5275 88.8184 19.1408C92.6956 13.5275 97.7881 9.01365 104.096 5.59935C110.462 2.12719 117.84 0.391106 126.231 0.391106C133.407 0.391106 140.091 1.7221 146.283 4.3841C152.533 6.98822 158.001 10.7497 162.689 15.6686C167.376 20.5875 171.022 26.4323 173.626 33.2031C176.288 39.9738 177.619 47.4679 177.619 55.6853C177.619 68.0694 174.349 80.3667 167.81 92.5771C161.271 104.73 152.041 116.564 140.12 128.08C128.256 139.538 114.31 150.475 98.28 160.892C96.6597 161.934 94.9815 162.86 93.2454 163.67C91.5672 164.538 90.0915 164.972 88.8184 164.972C87.6031 164.972 86.1274 164.538 84.3914 163.67C82.6553 162.86 81.006 161.934 79.4435 160.892C63.3558 150.475 49.3514 139.538 37.4303 128.08C25.5671 116.564 16.3658 104.73 9.8266 92.5771C3.28735 80.3667 0.01773 68.0694 0.01773 55.6853ZM20.1563 55.5985C20.1563 62.948 21.8924 70.4999 25.3645 78.2544C28.8946 85.9511 33.7556 93.5898 39.9476 101.171C46.1397 108.694 53.2865 115.985 61.3883 123.045C69.49 130.105 78.1415 136.674 87.3427 142.75C88.095 143.329 88.5869 143.618 88.8184 143.618C89.0498 143.618 89.5707 143.329 90.3808 142.75C99.5242 136.674 108.147 130.105 116.248 123.045C124.35 115.985 131.497 108.694 137.689 101.171C143.881 93.5898 148.713 85.9511 152.185 78.2544C155.715 70.4999 157.48 62.948 157.48 55.5985C157.48 48.4806 156.034 42.2596 153.14 36.9356C150.305 31.6117 146.398 27.474 141.422 24.5227C136.445 21.5134 130.803 20.0088 124.495 20.0088C119.402 20.0088 115.062 20.8769 111.474 22.613C107.886 24.2912 104.79 26.4613 102.186 29.1233C99.5821 31.7274 97.3252 34.3605 95.4155 37.0225C94.1423 38.7007 93.0139 39.9159 92.0301 40.6682C91.1042 41.4205 90.0336 41.7967 88.8184 41.7967C87.6031 41.7967 86.5036 41.4495 85.5198 40.755C84.536 40.0027 83.4076 38.7585 82.1344 37.0225C80.3405 34.3605 78.1415 31.7274 75.5373 29.1233C72.9911 26.5192 69.8951 24.349 66.2493 22.613C62.6035 20.8769 58.2344 20.0088 53.1419 20.0088C46.8341 20.0088 41.1918 21.5134 36.2151 24.5227C31.2383 27.474 27.3032 31.6117 24.4097 36.9356C21.5741 42.2596 20.1563 48.4806 20.1563 55.5985Z" fill="#7F7F7F" fill-opacity="0.5" style="mix-blend-mode:luminosity"/>
<path d="M0.01773 55.6853C0.01773 47.4679 1.31979 39.9738 3.92392 33.2031C6.58591 26.4323 10.2606 20.5875 14.948 15.6686C19.6933 10.7497 25.162 6.98822 31.354 4.3841C37.5461 1.7221 44.23 0.391106 51.4058 0.391106C59.7968 0.391106 67.1752 2.12719 73.5408 5.59935C79.9065 9.01365 84.999 13.5275 88.8184 19.1408C92.6956 13.5275 97.7881 9.01365 104.096 5.59935C110.462 2.12719 117.84 0.391106 126.231 0.391106C133.407 0.391106 140.091 1.7221 146.283 4.3841C152.533 6.98822 158.001 10.7497 162.689 15.6686C167.376 20.5875 171.022 26.4323 173.626 33.2031C176.288 39.9738 177.619 47.4679 177.619 55.6853C177.619 68.0694 174.349 80.3667 167.81 92.5771C161.271 104.73 152.041 116.564 140.12 128.08C128.256 139.538 114.31 150.475 98.28 160.892C96.6597 161.934 94.9815 162.86 93.2454 163.67C91.5672 164.538 90.0915 164.972 88.8184 164.972C87.6031 164.972 86.1274 164.538 84.3914 163.67C82.6553 162.86 81.006 161.934 79.4435 160.892C63.3558 150.475 49.3514 139.538 37.4303 128.08C25.5671 116.564 16.3658 104.73 9.8266 92.5771C3.28735 80.3667 0.01773 68.0694 0.01773 55.6853ZM20.1563 55.5985C20.1563 62.948 21.8924 70.4999 25.3645 78.2544C28.8946 85.9511 33.7556 93.5898 39.9476 101.171C46.1397 108.694 53.2865 115.985 61.3883 123.045C69.49 130.105 78.1415 136.674 87.3427 142.75C88.095 143.329 88.5869 143.618 88.8184 143.618C89.0498 143.618 89.5707 143.329 90.3808 142.75C99.5242 136.674 108.147 130.105 116.248 123.045C124.35 115.985 131.497 108.694 137.689 101.171C143.881 93.5898 148.713 85.9511 152.185 78.2544C155.715 70.4999 157.48 62.948 157.48 55.5985C157.48 48.4806 156.034 42.2596 153.14 36.9356C150.305 31.6117 146.398 27.474 141.422 24.5227C136.445 21.5134 130.803 20.0088 124.495 20.0088C119.402 20.0088 115.062 20.8769 111.474 22.613C107.886 24.2912 104.79 26.4613 102.186 29.1233C99.5821 31.7274 97.3252 34.3605 95.4155 37.0225C94.1423 38.7007 93.0139 39.9159 92.0301 40.6682C91.1042 41.4205 90.0336 41.7967 88.8184 41.7967C87.6031 41.7967 86.5036 41.4495 85.5198 40.755C84.536 40.0027 83.4076 38.7585 82.1344 37.0225C80.3405 34.3605 78.1415 31.7274 75.5373 29.1233C72.9911 26.5192 69.8951 24.349 66.2493 22.613C62.6035 20.8769 58.2344 20.0088 53.1419 20.0088C46.8341 20.0088 41.1918 21.5134 36.2151 24.5227C31.2383 27.474 27.3032 31.6117 24.4097 36.9356C21.5741 42.2596 20.1563 48.4806 20.1563 55.5985Z" fill="white" style="mix-blend-mode:overlay"/>
</svg>
