<svg width="148" height="23" viewBox="0 0 148 23" fill="none" xmlns="http://www.w3.org/2000/svg">
<path d="M11.8113 22.6422C9.90166 22.6422 8.10771 22.1503 6.42949 21.1666C4.75128 20.1249 3.39135 18.765 2.3497 17.0868C1.30805 15.3507 0.787223 13.4699 0.787223 11.4445C0.787223 9.41906 1.30805 7.56724 2.3497 5.88903C3.39135 4.21081 4.75128 2.87982 6.42949 1.89604C8.10771 0.854386 9.90166 0.333561 11.8113 0.333561H136.375C138.343 0.333561 140.166 0.854386 141.844 1.89604C143.522 2.87982 144.853 4.21081 145.837 5.88903C146.879 7.56724 147.399 9.41906 147.399 11.4445C147.399 13.4699 146.879 15.3507 145.837 17.0868C144.853 18.765 143.522 20.1249 141.844 21.1666C140.166 22.1503 138.343 22.6422 136.375 22.6422H11.8113Z" fill="#7F7F7F" fill-opacity="0.5" style="mix-blend-mode:luminosity"/>
<path d="M11.8113 22.6422C9.90166 22.6422 8.10771 22.1503 6.42949 21.1666C4.75128 20.1249 3.39135 18.765 2.3497 17.0868C1.30805 15.3507 0.787223 13.4699 0.787223 11.4445C0.787223 9.41906 1.30805 7.56724 2.3497 5.88903C3.39135 4.21081 4.75128 2.87982 6.42949 1.89604C8.10771 0.854386 9.90166 0.333561 11.8113 0.333561H136.375C138.343 0.333561 140.166 0.854386 141.844 1.89604C143.522 2.87982 144.853 4.21081 145.837 5.88903C146.879 7.56724 147.399 9.41906 147.399 11.4445C147.399 13.4699 146.879 15.3507 145.837 17.0868C144.853 18.765 143.522 20.1249 141.844 21.1666C140.166 22.1503 138.343 22.6422 136.375 22.6422H11.8113Z" fill="white" style="mix-blend-mode:overlay"/>
</svg>
