<svg width="148" height="147" viewBox="0 0 148 147" fill="none" xmlns="http://www.w3.org/2000/svg">
<path d="M0.454322 73.5178C0.454322 70.4508 1.55384 67.8177 3.75288 65.6187C5.95192 63.4196 8.58498 62.3201 11.6521 62.3201H62.7797V11.2793C62.7797 8.2122 63.8503 5.57914 65.9914 3.3801C68.1326 1.18106 70.7657 0.0815434 73.8906 0.0815434C76.9577 0.0815434 79.5908 1.18106 81.7898 3.3801C83.9888 5.57914 85.0884 8.2122 85.0884 11.2793V62.3201H136.216C139.225 62.3201 141.829 63.4196 144.028 65.6187C146.227 67.8177 147.327 70.4508 147.327 73.5178C147.327 76.6428 146.227 79.3048 144.028 81.5038C141.829 83.645 139.225 84.7156 136.216 84.7156H85.0884V135.843C85.0884 138.852 83.9888 141.457 81.7898 143.656C79.5908 145.855 76.9577 146.954 73.8906 146.954C70.7657 146.954 68.1326 145.855 65.9914 143.656C63.8503 141.457 62.7797 138.852 62.7797 135.843V84.7156H11.6521C8.58498 84.7156 5.95192 83.645 3.75288 81.5038C1.55384 79.3048 0.454322 76.6428 0.454322 73.5178Z" fill="#7F7F7F" fill-opacity="0.5" style="mix-blend-mode:luminosity"/>
<path d="M0.454322 73.5178C0.454322 70.4508 1.55384 67.8177 3.75288 65.6187C5.95192 63.4196 8.58498 62.3201 11.6521 62.3201H62.7797V11.2793C62.7797 8.2122 63.8503 5.57914 65.9914 3.3801C68.1326 1.18106 70.7657 0.0815434 73.8906 0.0815434C76.9577 0.0815434 79.5908 1.18106 81.7898 3.3801C83.9888 5.57914 85.0884 8.2122 85.0884 11.2793V62.3201H136.216C139.225 62.3201 141.829 63.4196 144.028 65.6187C146.227 67.8177 147.327 70.4508 147.327 73.5178C147.327 76.6428 146.227 79.3048 144.028 81.5038C141.829 83.645 139.225 84.7156 136.216 84.7156H85.0884V135.843C85.0884 138.852 83.9888 141.457 81.7898 143.656C79.5908 145.855 76.9577 146.954 73.8906 146.954C70.7657 146.954 68.1326 145.855 65.9914 143.656C63.8503 141.457 62.7797 138.852 62.7797 135.843V84.7156H11.6521C8.58498 84.7156 5.95192 83.645 3.75288 81.5038C1.55384 79.3048 0.454322 76.6428 0.454322 73.5178Z" fill="white" style="mix-blend-mode:overlay"/>
</svg>
