<svg width="175" height="168" viewBox="0 0 175 168" fill="none" xmlns="http://www.w3.org/2000/svg">
<path d="M80.9199 9.37988C83.2748 3.0156 92.3492 3.0156 94.7041 9.37988L94.8125 9.69336L111.032 59.6094H163.518C170.536 59.6096 173.519 68.4514 168.108 72.7256L167.844 72.9258L125.382 103.775L141.601 153.693L141.697 154.01C143.533 160.543 136.192 165.877 130.546 162.112L130.273 161.923L87.8115 131.071L45.3506 161.923C39.5818 166.114 31.8202 160.475 34.0234 153.693L50.2412 103.775L7.78027 72.9258C2.01155 68.7346 4.976 59.6096 12.1064 59.6094H64.5918L80.8115 9.69336L80.9199 9.37988Z" fill="white" stroke="white" stroke-width="7.92708"/>
</svg>
