<svg width="175" height="168" viewBox="0 0 175 168" fill="none" xmlns="http://www.w3.org/2000/svg">
<path d="M80.5723 9.37988C82.9272 3.0156 92.0015 3.0156 94.3564 9.37988L94.4648 9.69336L110.685 59.6094H163.17C170.189 59.6096 173.171 68.4514 167.761 72.7256L167.496 72.9258L125.034 103.775L141.253 153.693L141.35 154.01C143.186 160.543 135.844 165.877 130.198 162.112L129.926 161.923L87.4639 131.071L45.0029 161.923C39.2342 166.114 31.4725 160.475 33.6758 153.693L49.8936 103.775L7.43262 72.9258C1.66389 68.7346 4.62834 59.6096 11.7588 59.6094H64.2441L80.4639 9.69336L80.5723 9.37988Z" stroke="white" stroke-width="7.92708"/>
</svg>
